<svg width="64" height="64" viewBox="0 0 64 64" fill="none" xmlns="http://www.w3.org/2000/svg">
<g clip-path="url(#clip0_2277_2)">
<rect width="64" height="64" rx="10" fill="url(#paint0_linear_2277_2)"/>
<rect x="26.9976" y="19.424" width="55" height="52.5211" rx="8" transform="rotate(12.0866 26.9976 19.424)" fill="#100D4E"/>
<rect x="26.2291" y="18.2367" width="57" height="54.5211" rx="9" transform="rotate(12.0866 26.2291 18.2367)" stroke="white" stroke-opacity="0.3" stroke-width="2"/>
<path d="M32.5416 37.6193L35.1113 38.1697L34.7343 39.9298L29.8647 38.8868L31.6367 30.6144L33.9365 31.107L32.5416 37.6193Z" fill="#C0BDFF"/>
<path d="M39.6534 32.3316L38.6254 37.1307C38.5299 37.5766 38.5579 37.9426 38.7093 38.2286C38.8686 38.5164 39.1594 38.7055 39.5818 38.796C40.0042 38.8865 40.347 38.8331 40.6102 38.6358C40.8828 38.4324 41.0661 38.1117 41.1599 37.6736L42.1879 32.8745L44.4877 33.3671L43.4597 38.1662C43.2972 38.925 42.9978 39.5399 42.5614 40.011C42.1268 40.4742 41.6024 40.7833 40.9884 40.9381C40.3838 41.0868 39.7452 41.089 39.0724 40.9449C38.3997 40.8008 37.8258 40.5388 37.3509 40.1589C36.8854 39.7729 36.5571 39.2812 36.366 38.6839C36.1826 38.0883 36.1731 37.4072 36.3373 36.6406L37.3653 31.8415L39.6534 32.3316Z" fill="#C0BDFF"/>
<path d="M51.6442 43.5519L49.3444 43.0593L47.2721 37.7802L46.2819 42.4033L43.982 41.9107L45.7539 33.6383L48.0538 34.1309L50.1135 39.4687L51.1163 34.7869L53.4161 35.2795L51.6442 43.5519Z" fill="#C0BDFF"/>
<path d="M58.4766 43.6041L55.5431 42.9757L54.8082 44.2296L52.3911 43.7119L57.1786 36.0855L59.8304 36.6535L61.0624 45.5693L58.6335 45.049L58.4766 43.6041ZM58.2787 41.7209L57.9599 38.8545L56.5068 41.3413L58.2787 41.7209Z" fill="#C0BDFF"/>
<path d="M10.5 5C10.5 5 10.5278 7.47227 11.5278 8.47222C12.5277 9.47217 15 9.5 15 9.5C15 9.5 12.5277 9.52783 11.5278 10.5278C10.5278 11.5277 10.5 14 10.5 14C10.5 14 10.4722 11.5277 9.47222 10.5278C8.47227 9.52783 6 9.5 6 9.5C6 9.5 8.47227 9.47217 9.47222 8.47222C10.4722 7.47227 10.5 5 10.5 5Z" fill="white" fill-opacity="0.83"/>
</g>
<defs>
<linearGradient id="paint0_linear_2277_2" x1="32" y1="0" x2="32" y2="64" gradientUnits="userSpaceOnUse">
<stop stop-color="#1F1A8F"/>
<stop offset="1" stop-color="#7F7DA9"/>
</linearGradient>
<clipPath id="clip0_2277_2">
<rect width="64" height="64" rx="10" fill="white"/>
</clipPath>
</defs>
</svg>
